# xmcd
#
# Track frame offsets:
# 150
# 18124
# 35066
# 50180
# 79514
# 96090
# 117355
# 135117
# 153967
# 172184
# 189221
# 203892
#
# Disc length: 2969 seconds
#
#
# Revision: 0
# Processed by: cddbd v1.5.1PL0 Copyright (c) Steve Scherf et al.
# Submitted via: FreeRIP 2.931 
#
DISCID=940b970c
DTITLE=Chely Wright  - The Metropolitan Hotel
DYEAR=2005
DGENRE=Country
TTITLE0=It's The Song
TTITLE1=Back Of The Bottom Drawer
TTITLE2=I Got Him Ready For You
TTITLE3=The River
TTITLE4=Just The Way We Do It
TTITLE5=The Bumper Of My S.U.V.
TTITLE6=Your Shirt
TTITLE7=Between A Mother And A Child
TTITLE8=Southside Of Lonesome
TTITLE9=Wheels
TTITLE10=C'est La Vie (You Never Can Tell)
TTITLE11=What If I Can't Say No Again
EXTD=
EXTT0=
EXTT1=
EXTT2=
EXTT3=
EXTT4=
EXTT5=
EXTT6=
EXTT7=
EXTT8=
EXTT9=
EXTT10=
EXTT11=
PLAYORDER=
